<?xml version="1.0" encoding="utf-8"?>
<!-- Generator: Adobe Illustrator 25.2.1, SVG Export Plug-In . SVG Version: 6.00 Build 0)  -->
<svg version="1.1" id="Camada_1" focusable="false" xmlns="http://www.w3.org/2000/svg" xmlns:xlink="http://www.w3.org/1999/xlink"
	 x="0px" y="0px" viewBox="0 0 640 512" style="enable-background:new 0 0 640 512;" xml:space="preserve">
<style type="text/css">
	.st0{fill:#4CAF50;}
</style>
<path class="st0" d="M525.9,190.9L525.9,190.9c-29.1-12.2-58.2-16.8-87.3-16.8c-18.4,0-36.9,1.9-55.3,4.8
	c4.9-10.5,10.8-20.6,17.2-29.9c-1.5-18.9-0.5-37.7,2.3-56.5c1-6.9,1.4-14.4,0-21.2c-3.4-16.1-15.9-24.4-29.8-30.7
	c-12.2-5.5-24.5-10.8-37.2-15.1c-23.6-8-45.1-22.2-70.7-24.4c-0.9,0.3-1.8,0.6-2.7,0.9c-0.7,1-1.2,2-2,2.8
	c-14.1,14.4-12.5,30.7,4.9,41c7.1,4.2,15.3,6.6,23,9.8c3.4,1.5,6.8,3.1,10.2,4.6c-16.8,1.5-22.3,5.4-24.4,18.8
	c-1.6,10.4,2.8,18.5,11.5,23.6c8,4.7,16.8,7.9,25.2,11.7c1.3,0.6,2.5,1.4,5.1,2.8c-2.9,0.8-4.1,1.2-5.4,1.4
	c-11,1.5-15.9,6.9-16.2,18.1c-0.3,9.6,5.6,17.7,15.8,21.6c13.6,5.2,27.2,10.4,40.9,15.4c4.8,1.8,6,4.2,5.5,9.7c0,0.2,0,0.4,0,0.6
	c-37.7,8-75.5,19.1-113.2,27.1c5.2-11.8,11.7-23.2,19-33.7c-1.5-18.9-0.5-37.7,2.3-56.5c1-6.9,1.4-14.4,0-21.2
	c-3.4-16.1-15.9-24.4-29.8-30.7c-12.2-5.5-24.5-10.8-37.2-15.1c-23.6-8-45.1-22.2-70.7-24.4c-0.9,0.3-1.8,0.6-2.7,0.9
	c-0.7,1-1.2,2-2,2.8c-14.1,14.4-12.5,30.7,4.9,41c7.1,4.2,15.3,6.6,23,9.8c3.4,1.5,6.8,3.1,10.2,4.6c-16.8,1.5-22.3,5.4-24.4,18.8
	c-1.6,10.4,2.8,18.5,11.5,23.6c8,4.7,16.8,7.9,25.2,11.7c1.3,0.6,2.5,1.4,5.1,2.8c-2.9,0.8-4.1,1.2-5.4,1.4
	c-11,1.5-15.9,6.9-16.2,18.1c-0.3,9.6,5.6,17.7,15.8,21.6c13.6,5.2,27.2,10.4,40.9,15.4c4.8,1.8,6,4.2,5.5,9.7
	c-0.1,1.3-0.2,2.7-0.3,4.1c-18.7,3.1-37.4,5-56.1,5c-23.2,0-46.3-2.9-69.5-10.3c-2.6-0.8-5.2-1.2-7.8-1.2c-12.9,0-24.2,10-24.2,23.9
	v237.9c0,9.5,5.4,18.4,14.1,22.1c29.1,12.2,58.2,16.9,87.3,16.9c92.4,0,184.7-46.8,277.1-46.8c23.2,0,46.3,2.9,69.5,10.3
	c2.6,0.8,5.2,1.2,7.8,1.2c12.9,0,24.2-10,24.2-23.9V213C540,203.5,534.6,194.5,525.9,190.9z M96.1,249.2c15.1,3.8,30.8,5.7,47,6.7
	c-4.4,22-23.8,38.6-47,38.6V249.2z M96.1,462.9v-35.8c25.8,0,46.6,20.4,47.8,46C126.9,471.8,111.2,468.4,96.1,462.9z M300,414
	c-33.1,0-60-32.2-60-72c0-39.8,26.9-72,60-72s60,32.2,60,72C360,381.8,333.2,414,300,414z M504,434.8c-13.1-3.3-26.8-5.1-40.7-6.3
	c4.4-19.6,20.6-34.4,40.7-37V434.8z M504,257.8c-23.2-2.9-41.1-22.3-41.9-46.2c14.7,1.6,28.6,4.7,41.9,9.5V257.8z"/>
</svg>
